<?xml version="1.0" encoding="UTF-8"?>
<svg version="1.1" xmlns="http://www.w3.org/2000/svg" width="604" height="306">
<path d="M0 0 C10 1 10 1 16 3 C16 11.91 16 20.82 16 30 C18.76375 30.495 21.5275 30.99 24.375 31.5 C45.66906263 35.64724504 65.62080281 43.08128625 85.40380859 51.85009766 C88.59083385 53.2616915 91.79295488 54.63462436 95 56 C77.19082533 33.54295287 46.62563524 27.33943696 20 21 C20 15.39 20 9.78 20 4 C35.50338777 5.93792347 50.4270771 10.65366991 65.25 15.5 C66.90769409 16.03270508 66.90769409 16.03270508 68.59887695 16.57617188 C87.74670084 22.98049431 102.34553663 34.03133627 111.8125 52.125 C116.65274142 62.39217878 118.13134221 71.80243963 118.31640625 83.0859375 C118.33718735 84.14285797 118.35796844 85.19977844 118.37937927 86.28872681 C118.44453991 89.65075445 118.50360361 93.01285737 118.5625 96.375 C118.60571708 98.6601639 118.64933238 100.94532031 118.69335938 103.23046875 C118.80018683 108.82023391 118.90201425 114.41007324 119 120 C120.98 120.99 122.96 121.98 125 123 C127.16140371 122.15998969 127.16140371 122.15998969 129 120 C129.6267911 116.79925739 129.53267887 113.60780195 129.50390625 110.35546875 C129.51332748 109.394095 129.52274872 108.43272125 129.53245544 107.44221497 C129.56116794 104.35709591 129.564185 101.27274184 129.5625 98.1875 C129.59268284 72.88422186 132.1760036 52.61289247 150.1875 33.3125 C160.49937351 23.59920186 172.30917533 19.00968642 185.5625 14.8125 C187.16230736 14.29325282 188.76191551 13.77339149 190.36132812 13.25292969 C219.0387234 4 219.0387234 4 228 4 C228 9.61 228 15.22 228 21 C224.21272309 22.26242564 220.74761433 23.35731238 216.90234375 24.2265625 C181.42054174 32.43599084 181.42054174 32.43599084 154 55 C153.67 55.66 153.34 56.32 153 57 C153.59723877 56.70343506 154.19447754 56.40687012 154.80981445 56.10131836 C178.68497226 44.30641059 202.82933349 35.17717236 229.15209961 30.4230957 C231.00634445 30.17080728 231.00634445 30.17080728 232 29 C232.08748207 27.07332493 232.10697334 25.14348139 232.09765625 23.21484375 C232.09443359 22.04501953 232.09121094 20.87519531 232.08789062 19.66992188 C232.07951172 18.43822266 232.07113281 17.20652344 232.0625 15.9375 C232.05573242 14.08415039 232.05573242 14.08415039 232.04882812 12.19335938 C232.03699608 9.12885883 232.02051173 6.06445279 232 3 C237.60477385 0.78758927 241.53526584 0.64647342 248 0 C248 14.52 248 29.04 248 44 C237.605 45.98 237.605 45.98 227 48 C205.14153078 52.58885664 184.15497696 59.12159324 163.75 68.25 C162.40192261 68.84989746 162.40192261 68.84989746 161.02661133 69.46191406 C156.07120422 71.75949454 151.69347255 73.92028195 148 78 C147.49803706 81.71073505 147.49803706 81.71073505 148 85 C148.56581787 84.71390869 149.13163574 84.42781738 149.71459961 84.13305664 C173.70202186 72.09970681 204.47826283 57 232 57 C231.9690625 55.0509375 231.9690625 55.0509375 231.9375 53.0625 C231.91600546 51.70834367 231.92851801 50.35243917 232 49 C234.00148932 46.99851068 237.80611776 47.27691919 240.5625 46.9375 C243.016875 46.628125 245.47125 46.31875 248 46 C248 53.59 248 61.18 248 69 C238.00517241 71.2210728 238.00517241 71.2210728 233.34765625 72.0078125 C208.49031761 76.37574079 185.14170332 83.97335442 162 94 C161.23655273 94.32355469 160.47310547 94.64710937 159.68652344 94.98046875 C153.93978285 97.36807347 153.93978285 97.36807347 149 101 C147.99880047 103.95930348 147.43390185 106.91043921 147 110 C148.08152344 109.45472656 149.16304687 108.90945312 150.27734375 108.34765625 C176.24288015 95.51286029 203.65872469 87.5635298 232 82 C232 79.36 232 76.72 232 74 C237.52856179 72.23556539 242.03020234 71.66331085 248 71 C248 79.58 248 88.16 248 97 C243.545 97.5878125 243.545 97.5878125 239 98.1875 C209.53852493 102.31187297 175.01499716 108.81969303 150 126 C147.5705484 129.6441774 147.83820425 131.71241272 148 136 C148.60247559 135.67314209 149.20495117 135.34628418 149.82568359 135.00952148 C176.38236784 120.6777827 202.26834413 112.16807924 232 107 C232 104.69 232 102.38 232 100 C239.92 99.505 239.92 99.505 248 99 C248 106.59 248 114.18 248 122 C245.35097656 122.23783203 245.35097656 122.23783203 242.6484375 122.48046875 C210.35053695 125.54741225 178.03684546 132.82310972 150.60253906 151.07763672 C149 152 149 152 147 152 C147.0199855 152.81717499 147.03997101 153.63434998 147.06056213 154.47628784 C147.24161624 162.2136891 147.3782748 169.95005012 147.46630955 177.68902397 C147.51309426 181.66698124 147.57644017 185.64317491 147.67895508 189.62011719 C147.77744143 193.46526261 147.83069811 197.30872292 147.85389519 201.15503311 C147.87040355 202.61514931 147.90264267 204.07518303 147.95157051 205.5345726 C148.19823913 213.20380219 147.97036125 218.80121255 142.61425781 224.77661133 C141.09656463 226.20636863 139.56067389 227.61728688 138 229 C137.07228923 230.04707222 136.16456257 231.11280471 135.29296875 232.20703125 C133.87781318 233.95825344 132.4611211 235.70823499 131.04296875 237.45703125 C129.62279506 239.2247809 128.23140929 241.01588863 126.86328125 242.82421875 C126.24839844 243.54222656 125.63351563 244.26023437 125 245 C124.34 245 123.68 245 123 245 C121.62508701 243.49212839 120.32635538 241.91460239 119.0625 240.3125 C114.9825059 235.20421471 110.80292239 230.20076493 106.54321289 225.24145508 C102.65186368 220.68017433 101.87733477 218.82229679 102.0168457 212.84130859 C102.0547094 210.89821304 102.0547094 210.89821304 102.09333801 208.91586304 C102.1077424 208.22097149 102.1221468 207.52607994 102.13698769 206.81013107 C102.21699358 202.35196327 102.22930384 197.89300302 102.25208759 193.43424034 C102.27592643 189.51856223 102.3247555 185.60633133 102.4284668 181.69189453 C102.52754531 177.90174166 102.55745558 174.1165023 102.54152489 170.32515335 C102.54764626 168.88565935 102.5783648 167.44603916 102.63485146 166.00764084 C102.80896437 161.34959436 102.69701282 157.36588547 101 153 C97.12523751 149.09478982 91.99030964 147.09929291 87 145 C85.39760706 144.1795463 83.80022925 143.34894793 82.21484375 142.49609375 C56.03167137 129.67143795 28.95569363 124.10935517 0 122 C0 114.41 0 106.82 0 99 C5.77790229 99 10.45847359 99.05676146 16 100 C16 102.64 16 105.28 16 108 C16.72848145 108.0424585 17.45696289 108.08491699 18.20751953 108.12866211 C25.63356857 108.64279148 32.65125782 109.78793306 39.875 111.5625 C40.95434814 111.82716064 42.03369629 112.09182129 43.14575195 112.36450195 C63.8070698 117.6088675 83.88351623 125.66307356 102 137 C101.68950274 135.56206608 101.3765224 134.1246682 101.0625 132.6875 C100.80146484 131.48673828 100.80146484 131.48673828 100.53515625 130.26171875 C100.00113841 127.854599 100.00113841 127.854599 99 125 C97.02220131 124.2700981 95.01616614 123.61605076 93 123 C91.3131891 122.17281388 89.62726381 121.34343805 87.95483398 120.48754883 C63.15753186 107.96037422 35.05571461 100.83592151 7.484375 98.359375 C4 98 4 98 0 97 C0 88.42 0 79.84 0 71 C5.28 71.66 10.56 72.32 16 73 C16 76.3 16 79.6 16 83 C16.7321875 83.07476562 17.464375 83.14953125 18.21875 83.2265625 C47.20458142 86.7462706 75.08173939 96.85365914 101 110 C101.41890218 107.21061788 101.41890218 107.21061788 101 104 C97.08723712 99.14250564 92.33970932 96.83957695 86.75 94.25 C85.83323486 93.82170898 84.91646973 93.39341797 83.97192383 92.95214844 C58.35921041 81.25307188 31.82474167 74.47980935 4.04931641 70.38549805 C2 70 2 70 0 69 C0 61.41 0 53.82 0 46 C2.454375 46.309375 4.90875 46.61875 7.4375 46.9375 C8.21150146 47.03281006 8.98550293 47.12812012 9.78295898 47.22631836 C14.88888889 47.88888889 14.88888889 47.88888889 16 49 C16.14115161 51.67058851 16.04247107 54.32432238 16 57 C16.57540527 57.03738281 17.15081055 57.07476562 17.74365234 57.11328125 C47.35997587 59.50462501 75.81464912 72.88394478 102 86 C101.50110299 80.19421654 101.50110299 80.19421654 98.4309082 75.45605469 C96.34098587 74.14174385 94.23290992 73.05310833 92 72 C90.87150635 71.42088867 90.87150635 71.42088867 89.72021484 70.83007812 C61.36209827 56.5661153 31.05515091 49.40960693 0 44 C0 29.48 0 14.96 0 0 Z M118 137 C118 140.96 118 144.92 118 149 C121.465 150.98 121.465 150.98 125 153 C127.74066274 151.81768639 127.74066274 151.81768639 130 149 C130.45551292 144.97005043 130.28580155 141.03932853 130 137 C129.21882812 137.51046875 128.43765625 138.0209375 127.6328125 138.546875 C126.76398438 139.02640625 125.89515625 139.5059375 125 140 C122.875 139.25 122.875 139.25 121 138 C120.01 137.67 119.02 137.34 118 137 Z M118 165 C117.84746642 171.84988773 117.74262436 178.69933525 117.67041016 185.55053711 C117.64029661 187.87947964 117.59939622 190.20830931 117.54736328 192.53686523 C117.47431271 195.89074588 117.44048812 199.2431233 117.4140625 202.59765625 C117.38309479 203.63334244 117.35212708 204.66902863 117.32022095 205.73609924 C117.31781238 210.94714939 117.58348977 214.1591223 121.03662109 218.21264648 C121.9996968 219.16736115 122.9794237 220.10701684 124 221 C124.804375 220.195625 125.60875 219.39125 126.4375 218.5625 C127.625 217.375 128.8125 216.1875 130 215 C130.09326716 213.43452952 130.11745582 211.86487228 130.11352539 210.29663086 C130.11344986 209.29566879 130.11337433 208.29470673 130.11329651 207.26341248 C130.10813522 206.1748848 130.10297394 205.08635712 130.09765625 203.96484375 C130.0962413 202.85645645 130.09482635 201.74806915 130.09336853 200.60609436 C130.08775033 197.04986931 130.07519475 193.49370617 130.0625 189.9375 C130.05748734 187.53320403 130.05292403 185.12890708 130.04882812 182.72460938 C130.03777499 176.81638496 130.02101917 170.9081969 130 165 C129.21882812 165.51046875 128.43765625 166.0209375 127.6328125 166.546875 C126.76398438 167.02640625 125.89515625 167.5059375 125 168 C122.875 167.25 122.875 167.25 121 166 C120.01 165.67 119.02 165.34 118 165 Z " fill="#313131" transform="translate(21,31)"/>
<path d="M0 0 C70.29 0 140.58 0 213 0 C213 24.09 213 48.18 213 73 C209.37 75.64 205.74 78.28 202 81 C199.00843579 83.29904892 196.02842198 85.60623083 193.0625 87.9375 C186.10360904 93.37890753 179.09040732 98.73068513 172 104 C170.41607474 105.18671036 168.83267134 106.37411786 167.25 107.5625 C166.16666667 108.375 165.08333333 109.1875 164 110 C160.75183561 108.61307909 159.00823742 107.11310375 156.86328125 104.32421875 C156.28980957 103.58413574 155.71633789 102.84405273 155.12548828 102.08154297 C154.52720215 101.29150879 153.92891602 100.50147461 153.3125 99.6875 C152.69616699 98.8845752 152.07983398 98.08165039 151.44482422 97.25439453 C146.40946491 90.649675 141.61236236 83.90634152 137 77 C132.45514574 79.43413543 129.05875965 82.58779689 125.375 86.125 C121.1747577 90.09674736 116.95441878 93.94763842 112.4375 97.5625 C108.36032278 100.82901041 104.5001967 104.24690668 100.6875 107.8125 C93.96956681 114.08963442 87.01961716 120.06432263 80 126 C78.74210351 127.06630717 77.48429144 128.13271395 76.2265625 129.19921875 C73.15397987 131.80297047 70.07798161 134.40263346 67 137 C63.45296482 133.57830175 60.35809601 130.04592553 57.375 126.125 C56.95621582 125.57561768 56.53743164 125.02623535 56.10595703 124.46020508 C50.98050878 117.70719558 45.98735915 110.85524841 41 104 C36.30320894 105.44716625 33.32235642 108.21062959 29.875 111.5625 C24.9234419 116.26009587 19.84563185 120.6828856 14.515625 124.953125 C11.43349666 127.46094371 8.48689742 130.10037055 5.55859375 132.78515625 C4 134 4 134 2 134 C2 92.09 2 50.18 2 7 C1.34 7 0.68 7 0 7 C0 6.01 0 5.02 0 4 C0.66 4 1.32 4 2 4 C2 3.34 2 2.68 2 2 C1.34 2 0.68 2 0 2 C0 1.34 0 0.68 0 0 Z M21 19 C21 43.42 21 67.84 21 93 C26.14436942 89.14172294 31.1335554 85.29947928 36 81.125 C36.58394531 80.62742188 37.16789062 80.12984375 37.76953125 79.6171875 C39.18148057 78.41355857 40.59101011 77.20709195 42 76 C45.04978919 77.32465181 46.74737197 78.59071319 48.69921875 81.2734375 C49.18213379 81.92803955 49.66504883 82.5826416 50.16259766 83.25708008 C50.66581543 83.95599365 51.1690332 84.65490723 51.6875 85.375 C52.75119921 86.82429426 53.81500234 88.27351225 54.87890625 89.72265625 C55.40371582 90.44340332 55.92852539 91.16415039 56.46923828 91.90673828 C58.65726954 94.89879251 60.89112651 97.85451841 63.125 100.8125 C65.15662426 103.51016958 67.12642367 106.1896355 69 109 C72.67956291 107.43767979 75.16515793 105.16415918 78.0625 102.4375 C81.71140073 99.0431595 85.41581875 95.80023354 89.3125 92.6875 C94.43821169 88.56049431 99.20916557 84.12727844 103.98803711 79.61083984 C107.15910723 76.6357223 110.34288966 73.86312127 113.875 71.3125 C114.90625 70.549375 115.9375 69.78625 117 69 C117 68.34 117 67.68 117 67 C117.53753906 66.78085938 118.07507813 66.56171875 118.62890625 66.3359375 C121.81298668 64.54194161 124.30391908 62.1237784 126.9375 59.625 C128.94557108 57.73564507 130.96541952 55.8607721 133 54 C133.86753906 53.20335937 134.73507812 52.40671875 135.62890625 51.5859375 C138 50 138 50 139.98168945 50.19091797 C142.45601946 51.18280494 143.18968139 52.15831434 144.6640625 54.359375 C145.38057983 55.40629517 145.38057983 55.40629517 146.11157227 56.47436523 C146.61100342 57.22532471 147.11043457 57.97628418 147.625 58.75 C148.68666309 60.29964468 149.75049574 61.84780505 150.81640625 63.39453125 C151.34766113 64.16877441 151.87891602 64.94301758 152.42626953 65.74072266 C154.72256181 69.03732345 157.11854091 72.24940733 159.5625 75.4375 C160.34753906 76.46746094 161.13257813 77.49742188 161.94140625 78.55859375 C163.9445165 81.16416981 163.9445165 81.16416981 167 83 C167.53890869 82.60208252 168.07781738 82.20416504 168.63305664 81.79418945 C171.10912828 79.96640418 173.58580973 78.13944691 176.0625 76.3125 C176.91005859 75.68666016 177.75761719 75.06082031 178.63085938 74.41601562 C179.46552734 73.80048828 180.30019531 73.18496094 181.16015625 72.55078125 C181.98016113 71.94443848 182.80016602 71.3380957 183.64501953 70.71337891 C185.75720361 69.17664784 187.90049108 67.70137594 190.05859375 66.23046875 C193.22540107 64.26521655 193.22540107 64.26521655 194 61 C194 47.14 194 33.28 194 19 C136.91 19 79.82 19 21 19 Z " fill="#313131" transform="translate(365,34)"/>
<path d="M0 0 C5.22341239 3.92932374 8.66961674 8.33620492 12.375 13.6875 C13.50959327 15.29707328 14.64630421 16.90515595 15.78515625 18.51171875 C16.33187988 19.28306152 16.87860352 20.0544043 17.44189453 20.84912109 C20.0459179 24.44383214 22.84819586 27.85476457 25.70703125 31.25 C27 33 27 33 27 35 C32.84962496 31.52246705 38.32138179 27.86273166 43.5 23.4375 C48.80992776 18.90208207 54.31370274 14.70170466 59.9375 10.5625 C61.16339844 9.65745728 61.16339844 9.65745728 62.4140625 8.73413086 C66.18405309 5.97401481 69.92298209 3.29795555 74 1 C75.60871498 2.60871498 75.12600829 4.32900899 75.12698364 6.55529785 C75.12980347 7.53968338 75.13262329 8.52406891 75.13552856 9.5382843 C75.13249222 11.17158943 75.13249222 11.17158943 75.12939453 12.83789062 C75.13202301 14.54745186 75.13202301 14.54745186 75.13470459 16.29154968 C75.13912586 20.07979836 75.13618414 23.8680008 75.1328125 27.65625 C75.13348546 30.27559417 75.13445542 32.89493827 75.13571167 35.51428223 C75.1375332 41.01229356 75.13512749 46.51029148 75.13037109 52.00830078 C75.1249285 58.37316987 75.12669117 64.73800692 75.1321975 71.10287523 C75.13727429 77.21484332 75.1367471 83.32679716 75.13381577 89.43876648 C75.13314622 92.04481511 75.13397587 94.65086455 75.13629532 97.25691223 C75.13882022 100.89200033 75.13498353 104.52702596 75.12939453 108.16210938 C75.13141876 109.25097946 75.13344299 110.33984955 75.13552856 111.4617157 C75.13270874 112.44610123 75.12988892 113.43048676 75.12698364 114.44470215 C75.1264181 115.73556858 75.1264181 115.73556858 75.12584114 117.05251312 C75 119 75 119 74 120 C71.29407755 120.09785121 68.61368824 120.1299368 65.90733337 120.12025452 C65.04893295 120.12110894 64.19053253 120.12196337 63.30611998 120.12284368 C60.4071029 120.12450112 57.50814268 120.11897282 54.60913086 120.11352539 C52.54004416 120.11324355 50.47095737 120.11340119 48.40187073 120.1139679 C42.76573737 120.11425599 37.12962509 120.10835733 31.49349666 120.10139394 C25.61045738 120.09516239 19.72741768 120.09455676 13.84437561 120.09336853 C2.69545772 120.09025462 -8.45345042 120.08204044 -19.602364 120.07201904 C-32.29138268 120.06085974 -44.98040182 120.05534792 -57.66942418 120.05032361 C-83.77962153 120.03985787 -109.88981022 120.02225729 -136 120 C-136.35013356 112.53371289 -136.61532235 105.06829011 -136.77718258 97.59562397 C-136.85495408 94.12351196 -136.96001485 90.65707515 -137.1315918 87.18823242 C-138.30087467 62.92563777 -138.30087467 62.92563777 -132.74873352 56.33930969 C-129.69247156 53.43368274 -126.3949329 51.14135992 -122.74693584 49.04056263 C-120.45136144 47.67320335 -118.55092896 45.99000117 -116.60546875 44.16796875 C-109.85875408 38.2806962 -103.06649871 32.50355546 -96 27 C-92.17152849 28.50586546 -90.50625069 30.63432541 -88.125 33.9375 C-86.97064453 35.52111328 -86.97064453 35.52111328 -85.79296875 37.13671875 C-85.36032715 37.73661621 -84.92768555 38.33651367 -84.48193359 38.95458984 C-82.1324934 42.19735919 -79.74799367 45.41415007 -77.36865234 48.63500977 C-74.57384905 52.41947729 -71.78679107 56.20963061 -69 60 C-63.93597389 56.32758995 -59.21069263 52.50506051 -54.6875 48.1875 C-49.87187024 43.6627519 -44.91165923 39.42476201 -39.7578125 35.28515625 C-35.62001026 31.85652408 -31.70328893 28.20107087 -27.76171875 24.55078125 C-24.23491304 21.29334967 -20.63461621 18.13586956 -17 15 C-15.83452402 13.98059609 -14.66917107 12.96105153 -13.50390625 11.94140625 C-12.23201913 10.83565183 -10.95988185 9.7301851 -9.6875 8.625 C-8.77025146 7.81977905 -8.77025146 7.81977905 -7.83447266 6.99829102 C-5.24517694 4.75986103 -3.27998431 3.0933281 0 2 C0 1.34 0 0.68 0 0 Z M-21.16333008 44.55786133 C-24.48944555 47.65604628 -27.88610352 50.59533982 -31.4375 53.4375 C-37.14640657 58.01964869 -42.44386861 62.99005024 -47.78125 67.9921875 C-51.44257574 71.42309493 -55.16979791 74.75848656 -59 78 C-59.93070313 78.79792969 -60.86140625 79.59585938 -61.8203125 80.41796875 C-62.80773437 81.24941406 -63.79515625 82.08085937 -64.8125 82.9375 C-65.72644531 83.70964844 -66.64039063 84.48179687 -67.58203125 85.27734375 C-70 87 -70 87 -73 87 C-74.46704102 85.4621582 -74.46704102 85.4621582 -76.00390625 83.30078125 C-76.57544434 82.50905518 -77.14698242 81.7173291 -77.73583984 80.90161133 C-78.3386377 80.04720459 -78.94143555 79.19279785 -79.5625 78.3125 C-80.81527385 76.57210098 -82.06918739 74.83252179 -83.32421875 73.09375 C-84.25306885 71.80017578 -84.25306885 71.80017578 -85.20068359 70.48046875 C-87.69540532 67.04134083 -90.27061294 63.66897665 -92.875 60.3125 C-93.67679687 59.27738281 -94.47859375 58.24226563 -95.3046875 57.17578125 C-96.14386719 56.09876953 -96.14386719 56.09876953 -97 55 C-101.19596947 56.39366129 -103.79298574 58.35840221 -107 61.375 C-110.2608643 64.42187008 -113.49913718 67.19930975 -117 70 C-117 79.9 -117 89.8 -117 100 C-59.91 100 -2.82 100 56 100 C56 79.87 56 59.74 56 39 C51.24408128 41.71766784 47.86342939 43.75545026 43.875 47.1875 C37.85956881 52.22406408 31.50244514 56.62713149 25 61 C21.45296482 57.57830175 18.35809601 54.04592553 15.375 50.125 C14.95549072 49.57561768 14.53598145 49.02623535 14.10375977 48.46020508 C10.15104334 43.25903267 6.30228854 37.98031431 2.49169922 32.67431641 C1.35124554 31.09896862 0.17884308 29.54683039 -1 28 C-6.63480171 28 -16.88634145 40.55206881 -21.16333008 44.55786133 Z " fill="#313131" transform="translate(503,126)"/>
<path d="M0 0 C4.62 0 9.24 0 14 0 C14 91.74 14 183.48 14 278 C9.38 278 4.76 278 0 278 C0 186.26 0 94.52 0 0 Z " fill="#313131" transform="translate(311,15)"/>
<path d="M0 0 C69.63 0 139.26 0 211 0 C211 3.3 211 6.6 211 10 C141.37 10 71.74 10 0 10 C0 6.7 0 3.4 0 0 Z " fill="#313131" transform="translate(367,264)"/>
</svg>
